<svg width="90" height="32" viewBox="0 0 90 32" fill="none" xmlns="http://www.w3.org/2000/svg">
<path d="M4.30072 19.052H11.2727L11.3087 20.48H4.24072L4.30072 19.052ZM5.92072 25.352C5.92072 25.552 5.85272 25.712 5.71672 25.832C5.58872 25.944 5.38472 26 5.10472 26H1.26472C0.984719 26 0.776719 25.944 0.640719 25.832C0.504719 25.712 0.436719 25.556 0.436719 25.364C0.436719 25.22 0.472719 25.1 0.544719 25.004C0.624719 24.9 0.748719 24.8 0.916719 24.704L1.24072 24.56C1.49672 24.424 1.70072 24.244 1.85272 24.02C2.00472 23.796 2.16472 23.412 2.33272 22.868L5.80072 11.912C5.92872 11.504 5.96872 11.208 5.92072 11.024C5.87272 10.832 5.70472 10.68 5.41672 10.568C5.20872 10.472 5.05672 10.368 4.96072 10.256C4.87272 10.136 4.82872 9.996 4.82872 9.836C4.82872 9.636 4.89672 9.48 5.03272 9.368C5.17672 9.256 5.38872 9.2 5.66872 9.2H12.3767C12.6647 9.2 12.8727 9.256 13.0007 9.368C13.1367 9.48 13.2047 9.636 13.2047 9.836C13.2047 10.012 13.1567 10.156 13.0607 10.268C12.9727 10.38 12.8367 10.472 12.6527 10.544C12.4447 10.624 12.3207 10.732 12.2807 10.868C12.2487 11.004 12.2807 11.224 12.3767 11.528L16.1447 23.168C16.2807 23.608 16.4167 23.936 16.5527 24.152C16.6967 24.36 16.8887 24.512 17.1287 24.608C17.3687 24.72 17.5287 24.832 17.6087 24.944C17.6967 25.048 17.7407 25.184 17.7407 25.352C17.7407 25.552 17.6727 25.712 17.5367 25.832C17.4007 25.944 17.1927 26 16.9127 26H11.0687C10.7807 26 10.5687 25.944 10.4327 25.832C10.3047 25.712 10.2407 25.552 10.2407 25.352C10.2407 25.192 10.2847 25.064 10.3727 24.968C10.4607 24.864 10.5967 24.776 10.7807 24.704L11.3087 24.548C11.5167 24.468 11.6127 24.356 11.5967 24.212C11.5887 24.06 11.5327 23.816 11.4287 23.48L7.49272 10.952L7.94872 10.628L4.14472 22.64C4.03272 23.008 3.98072 23.308 3.98872 23.54C3.99672 23.772 4.07272 23.968 4.21672 24.128C4.36872 24.28 4.60072 24.428 4.91272 24.572L5.39272 24.728C5.56072 24.8 5.68872 24.884 5.77672 24.98C5.87272 25.068 5.92072 25.192 5.92072 25.352ZM27.1219 24.032V23.564L26.9899 23.54V17.468C26.9899 17.244 26.9579 17.088 26.8939 17C26.8379 16.904 26.7419 16.84 26.6059 16.808L26.1499 16.748C25.9979 16.708 25.8899 16.648 25.8259 16.568C25.7619 16.48 25.7299 16.372 25.7299 16.244C25.7299 16.092 25.7699 15.972 25.8499 15.884C25.9379 15.788 26.1019 15.696 26.3419 15.608L28.8979 14.672C29.2259 14.544 29.4939 14.452 29.7019 14.396C29.9099 14.34 30.1099 14.312 30.3019 14.312C30.5899 14.312 30.8059 14.392 30.9499 14.552C31.1019 14.712 31.1779 14.92 31.1779 15.176V23.876C31.1779 24.156 31.2059 24.356 31.2619 24.476C31.3259 24.596 31.4219 24.68 31.5499 24.728L31.9219 24.848C32.0819 24.912 32.1979 24.992 32.2699 25.088C32.3419 25.184 32.3779 25.296 32.3779 25.424C32.3779 25.6 32.3179 25.74 32.1979 25.844C32.0859 25.948 31.9019 26 31.6459 26H28.8619C28.3899 26 27.9819 25.812 27.6379 25.436C27.2939 25.052 27.1219 24.584 27.1219 24.032ZM19.3939 22.628V17.468C19.3939 17.244 19.3619 17.088 19.2979 17C19.2339 16.904 19.1339 16.84 18.9979 16.808L18.5419 16.748C18.3899 16.708 18.2819 16.648 18.2179 16.568C18.1539 16.48 18.1219 16.372 18.1219 16.244C18.1219 16.092 18.1619 15.972 18.2419 15.884C18.3299 15.788 18.4939 15.696 18.7339 15.608L21.2899 14.672C21.6419 14.536 21.9179 14.444 22.1179 14.396C22.3259 14.34 22.5059 14.312 22.6579 14.312C22.9619 14.312 23.1899 14.392 23.3419 14.552C23.5019 14.712 23.5819 14.92 23.5819 15.176V22.04C23.5819 22.648 23.7219 23.104 24.0019 23.408C24.2899 23.704 24.6779 23.852 25.1659 23.852C25.4779 23.852 25.8019 23.784 26.1379 23.648C26.4819 23.512 26.8139 23.304 27.1339 23.024L27.5899 22.628L28.1899 23.264L27.7699 23.636C26.7139 24.628 25.7939 25.324 25.0099 25.724C24.2259 26.116 23.4939 26.312 22.8139 26.312C21.7979 26.312 20.9739 25.976 20.3419 25.304C19.7099 24.632 19.3939 23.74 19.3939 22.628ZM41.8587 23.984L41.7267 23.948V11.18C41.7267 10.956 41.6947 10.8 41.6307 10.712C41.5667 10.616 41.4707 10.552 41.3427 10.52L40.8747 10.46C40.7307 10.42 40.6227 10.36 40.5507 10.28C40.4867 10.192 40.4547 10.084 40.4547 9.956C40.4547 9.804 40.4987 9.684 40.5867 9.596C40.6747 9.5 40.8347 9.408 41.0667 9.32L43.6227 8.384C43.9587 8.256 44.2307 8.164 44.4387 8.108C44.6467 8.052 44.8467 8.024 45.0387 8.024C45.3267 8.024 45.5427 8.104 45.6867 8.264C45.8387 8.424 45.9147 8.632 45.9147 8.888V23.876C45.9147 24.156 45.9427 24.356 45.9987 24.476C46.0547 24.596 46.1507 24.68 46.2867 24.728L46.6587 24.848C46.8187 24.912 46.9347 24.992 47.0067 25.088C47.0787 25.184 47.1147 25.296 47.1147 25.424C47.1147 25.6 47.0547 25.74 46.9347 25.844C46.8227 25.948 46.6347 26 46.3707 26H43.5027C43.0547 26 42.6667 25.848 42.3387 25.544C42.0187 25.232 41.8587 24.844 41.8587 24.38V23.984ZM33.2307 20.636C33.2307 19.356 33.4867 18.24 33.9987 17.288C34.5187 16.328 35.2227 15.588 36.1107 15.068C37.0067 14.54 38.0107 14.276 39.1227 14.276C40.0747 14.276 40.9027 14.484 41.6067 14.9C42.3187 15.316 42.9187 15.936 43.4067 16.76L42.3987 17.504C42.0307 16.928 41.6427 16.508 41.2347 16.244C40.8347 15.972 40.3987 15.836 39.9267 15.836C39.4707 15.836 39.0627 15.988 38.7027 16.292C38.3427 16.588 38.0627 17.056 37.8627 17.696C37.6627 18.336 37.5627 19.176 37.5627 20.216C37.5627 21.168 37.6627 21.944 37.8627 22.544C38.0627 23.144 38.3347 23.588 38.6787 23.876C39.0307 24.156 39.4307 24.296 39.8787 24.296C40.3827 24.296 40.8467 24.14 41.2707 23.828C41.7027 23.508 42.1067 23.008 42.4827 22.328L43.1427 23.036C42.4947 24.06 41.7587 24.864 40.9347 25.448C40.1107 26.024 39.1867 26.312 38.1627 26.312C37.2107 26.312 36.3627 26.072 35.6187 25.592C34.8827 25.112 34.2987 24.448 33.8667 23.6C33.4427 22.744 33.2307 21.756 33.2307 20.636ZM52.8936 19.556C52.8936 18.38 53.0536 17.4 53.3736 16.616C53.7016 15.832 54.1296 15.248 54.6576 14.864C55.1856 14.472 55.7576 14.276 56.3736 14.276C57.1736 14.276 57.7856 14.508 58.2096 14.972C58.6336 15.436 58.8456 16.124 58.8456 17.036C58.8456 17.908 58.6656 18.556 58.3056 18.98C57.9536 19.396 57.4936 19.604 56.9256 19.604C56.3576 19.604 55.9256 19.456 55.6296 19.16C55.3416 18.856 55.1976 18.436 55.1976 17.9V17.432C55.1896 17.208 55.1376 17.04 55.0416 16.928C54.9456 16.808 54.7896 16.748 54.5736 16.748C54.3496 16.748 54.1416 16.84 53.9496 17.024C53.7656 17.208 53.6136 17.5 53.4936 17.9C53.3736 18.292 53.3136 18.808 53.3136 19.448L52.8936 19.556ZM53.0736 15.176L53.3136 17.876V23.876C53.3136 24.116 53.3536 24.292 53.4336 24.404C53.5216 24.516 53.6936 24.592 53.9496 24.632L54.9336 24.812C55.1336 24.852 55.2816 24.92 55.3776 25.016C55.4736 25.112 55.5216 25.248 55.5216 25.424C55.5216 25.6 55.4576 25.74 55.3296 25.844C55.2016 25.948 55.0136 26 54.7656 26H48.6576C48.4016 26 48.2136 25.948 48.0936 25.844C47.9816 25.74 47.9256 25.6 47.9256 25.424C47.9256 25.296 47.9616 25.184 48.0336 25.088C48.1056 24.992 48.2216 24.912 48.3816 24.848L48.7656 24.728C48.8936 24.68 48.9856 24.596 49.0416 24.476C49.0976 24.356 49.1256 24.16 49.1256 23.888V17.492C49.1256 17.268 49.0936 17.112 49.0296 17.024C48.9736 16.928 48.8776 16.864 48.7416 16.832L48.2856 16.772C48.1336 16.732 48.0256 16.672 47.9616 16.592C47.8976 16.504 47.8656 16.396 47.8656 16.268C47.8656 16.116 47.9096 15.992 47.9976 15.896C48.0856 15.8 48.2456 15.712 48.4776 15.632L50.9736 14.72C51.4216 14.552 51.7456 14.444 51.9456 14.396C52.1536 14.34 52.3136 14.312 52.4256 14.312C52.6176 14.312 52.7616 14.38 52.8576 14.516C52.9616 14.644 53.0336 14.864 53.0736 15.176ZM70.845 18.884C70.845 19.348 70.713 19.708 70.449 19.964C70.193 20.212 69.821 20.336 69.333 20.336H62.025V19.316H66.081C66.481 19.316 66.681 19.128 66.681 18.752C66.681 17.68 66.525 16.896 66.213 16.4C65.901 15.896 65.493 15.644 64.989 15.644C64.605 15.644 64.261 15.772 63.957 16.028C63.661 16.284 63.425 16.664 63.249 17.168C63.073 17.672 62.985 18.296 62.985 19.04C62.985 20.552 63.329 21.672 64.017 22.4C64.713 23.128 65.645 23.492 66.813 23.492C67.445 23.492 68.005 23.384 68.493 23.168C68.981 22.952 69.393 22.608 69.729 22.136C69.905 21.968 70.041 21.856 70.137 21.8C70.233 21.736 70.329 21.704 70.425 21.704C70.553 21.704 70.649 21.768 70.713 21.896C70.777 22.024 70.809 22.18 70.809 22.364C70.793 23.068 70.553 23.724 70.089 24.332C69.625 24.932 68.989 25.412 68.181 25.772C67.381 26.132 66.453 26.312 65.397 26.312C64.213 26.312 63.157 26.072 62.229 25.592C61.309 25.112 60.581 24.444 60.045 23.588C59.517 22.732 59.253 21.728 59.253 20.576C59.253 19.32 59.501 18.22 59.997 17.276C60.493 16.332 61.213 15.596 62.157 15.068C63.101 14.54 64.229 14.276 65.541 14.276C66.685 14.276 67.649 14.476 68.433 14.876C69.225 15.268 69.825 15.812 70.233 16.508C70.641 17.196 70.845 17.988 70.845 18.884ZM79.822 23.864L77.578 27.788L72.43 16.748C72.286 16.428 72.138 16.204 71.986 16.076C71.842 15.94 71.638 15.828 71.374 15.74C71.222 15.676 71.114 15.6 71.05 15.512C70.986 15.424 70.954 15.308 70.954 15.164C70.954 14.988 71.018 14.848 71.146 14.744C71.274 14.64 71.446 14.588 71.662 14.588H77.59C77.806 14.588 77.978 14.64 78.106 14.744C78.234 14.84 78.298 14.98 78.298 15.164C78.298 15.308 78.258 15.424 78.178 15.512C78.098 15.6 77.966 15.668 77.782 15.716L77.374 15.812C77.038 15.9 76.842 16.044 76.786 16.244C76.73 16.444 76.806 16.788 77.014 17.276L79.822 23.864ZM77.362 27.5L77.938 26.12L78.454 25.136L81.502 17.468C81.694 16.98 81.758 16.616 81.694 16.376C81.638 16.136 81.438 15.972 81.094 15.884L80.638 15.752C80.462 15.704 80.33 15.632 80.242 15.536C80.154 15.432 80.11 15.308 80.11 15.164C80.11 14.98 80.174 14.84 80.302 14.744C80.43 14.64 80.602 14.588 80.818 14.588H84.178C84.402 14.588 84.574 14.64 84.694 14.744C84.822 14.848 84.886 14.988 84.886 15.164C84.886 15.284 84.85 15.392 84.778 15.488C84.706 15.584 84.582 15.672 84.406 15.752C84.078 15.88 83.814 16.048 83.614 16.256C83.414 16.464 83.218 16.808 83.026 17.288L79.03 27.116C78.534 28.316 78.082 29.244 77.674 29.9C77.266 30.564 76.822 31.024 76.342 31.28C75.87 31.536 75.282 31.664 74.578 31.664C73.562 31.664 72.75 31.388 72.142 30.836C71.542 30.292 71.242 29.612 71.242 28.796C71.242 28.212 71.39 27.752 71.686 27.416C71.982 27.08 72.374 26.912 72.862 26.912C73.342 26.912 73.706 27.052 73.954 27.332C74.21 27.612 74.43 27.984 74.614 28.448L74.818 28.976C74.906 29.248 75.022 29.46 75.166 29.612C75.31 29.764 75.47 29.84 75.646 29.84C75.814 29.84 75.974 29.784 76.126 29.672C76.278 29.56 76.45 29.336 76.642 29C76.842 28.664 77.082 28.164 77.362 27.5Z" fill="#FFD166"/>
<path d="M87.2546 26.3C86.7986 26.3 86.3826 26.188 86.0066 25.964C85.6306 25.732 85.3346 25.424 85.1186 25.04C84.9026 24.648 84.7946 24.228 84.7946 23.78C84.7946 23.316 84.9026 22.896 85.1186 22.52C85.3346 22.144 85.6306 21.844 86.0066 21.62C86.3826 21.388 86.7986 21.272 87.2546 21.272C87.7186 21.272 88.1386 21.388 88.5146 21.62C88.8906 21.844 89.1866 22.144 89.4026 22.52C89.6186 22.896 89.7266 23.316 89.7266 23.78C89.7266 24.228 89.6186 24.648 89.4026 25.04C89.1866 25.424 88.8906 25.732 88.5146 25.964C88.1386 26.188 87.7186 26.3 87.2546 26.3Z" fill="white"/>
</svg>
