<svg width="28" height="18" viewBox="0 0 28 18" fill="none" xmlns="http://www.w3.org/2000/svg">
<g clip-path="url(#clip0_107_394)">
<path d="M8.11384 0.000137329C8.87451 0.000137329 9.63519 0.070725 10.3596 0.211902C10.9754 0.353078 11.555 0.600136 12.0983 0.953077C12.5692 1.30602 12.9677 1.76484 13.2212 2.29426C13.511 2.96484 13.6559 3.67073 13.6197 4.37661C13.6559 5.15308 13.4385 5.92955 13.0401 6.60014C12.6054 7.23543 11.9896 7.72955 11.3014 8.0472C12.2794 8.29426 13.1125 8.89425 13.6559 9.67072C14.1992 10.5178 14.4528 11.506 14.4528 12.4943C14.4528 13.306 14.3079 14.0825 13.9457 14.7884C13.6197 15.4237 13.1488 15.9531 12.6054 16.4119C12.0259 16.8354 11.3376 17.1531 10.6494 17.3296C9.92497 17.5413 9.16429 17.6119 8.40362 17.6119H0V-0.0351562H8.11384V0.000137329ZM7.60673 7.12955C8.18629 7.16484 8.80207 6.98837 9.27296 6.63543C9.74385 6.2472 9.99741 5.6472 9.92497 5.0119C9.92497 4.65896 9.85252 4.30602 9.70763 3.98837C9.56274 3.74131 9.38163 3.52955 9.12807 3.38837C8.87451 3.2472 8.58473 3.10602 8.29495 3.07072C7.96895 3.00014 7.64295 3.00014 7.31695 3.00014H3.76714V7.12955H7.60673ZM7.82406 14.6825C8.18629 14.6825 8.54851 14.6472 8.87451 14.5766C9.20052 14.506 9.4903 14.3648 9.78008 14.1884C10.0336 14.0119 10.251 13.7648 10.3959 13.4825C10.577 13.1295 10.6494 12.7413 10.6132 12.3531C10.6856 11.6119 10.3959 10.906 9.85252 10.4119C9.27296 9.98837 8.58473 9.8119 7.86028 9.84719H3.76714V14.7178H7.82406V14.6825Z" fill="#432DD7"/>
<path d="M19.814 14.6121C20.4297 15.1415 21.2266 15.4239 22.0235 15.3886C22.6755 15.3886 23.2913 15.2121 23.7984 14.8592C24.2331 14.5768 24.5229 14.1886 24.704 13.7297H27.7105C27.3845 15.0356 26.5876 16.2003 25.5009 17.0121C24.4504 17.718 23.1827 18.0356 21.8786 18.0003C20.9731 18.0003 20.0675 17.8592 19.1982 17.5062C18.4375 17.1886 17.7493 16.7297 17.2059 16.1297C16.6626 15.4945 16.2279 14.7886 15.9381 14.0121C15.6121 13.1297 15.4673 12.2121 15.5035 11.2945C15.5035 10.3768 15.6484 9.49445 15.9744 8.6121C16.8437 6.14151 19.2344 4.48269 21.9149 4.51798C22.8929 4.48269 23.8347 4.72975 24.704 5.15328C25.4647 5.57681 26.1529 6.14151 26.66 6.84739C27.1671 7.58857 27.5656 8.40034 27.7467 9.28269C27.964 10.2003 28.0365 11.1886 28.0002 12.1415H19.0171C18.9084 13.0239 19.1982 13.9062 19.814 14.6121ZM23.726 7.87092C23.2189 7.37681 22.5306 7.12975 21.8062 7.16504C21.3353 7.16504 20.8644 7.23563 20.466 7.44739C20.14 7.62386 19.8502 7.87092 19.5966 8.15328C19.3793 8.43563 19.2344 8.71798 19.1257 9.07092C19.0533 9.35328 18.9808 9.63563 18.9808 9.91798H24.5591C24.4867 9.17681 24.1969 8.47092 23.726 7.87092Z" fill="#432DD7"/>
<path d="M25.2125 1.16504H18.2578V2.89445H25.2125V1.16504Z" fill="#432DD7"/>
</g>
<defs>
<clipPath id="clip0_107_394">
<rect width="28" height="18" fill="white"/>
</clipPath>
</defs>
</svg>
