<svg width="28" height="28" viewBox="0 0 28 28" fill="none" xmlns="http://www.w3.org/2000/svg">
<path d="M18.6663 2.33301L15.9829 5.01634C15.3416 5.67059 14.9824 6.55021 14.9824 7.46634C14.9824 8.38248 15.3416 9.26209 15.9829 9.91634L18.0829 12.0163C18.7372 12.6576 19.6168 13.0168 20.5329 13.0168C21.4491 13.0168 22.3287 12.6576 22.9829 12.0163L25.6663 9.33301" stroke="#FF8FA3" stroke-width="2.33333" stroke-linecap="round" stroke-linejoin="round"/>
<path d="M17.4996 17.4996L3.84962 3.84961C3.38398 4.30584 3.01406 4.8504 2.76152 5.45139C2.50898 6.05238 2.37891 6.69772 2.37891 7.34961C2.37891 8.0015 2.50898 8.64684 2.76152 9.24783C3.01406 9.84882 3.38398 10.3934 3.84962 10.8496L12.3663 19.3663C13.183 20.1829 14.6996 20.1829 15.633 19.3663L17.4996 17.4996ZM17.4996 17.4996L25.6663 25.6663" stroke="#FF8FA3" stroke-width="2.33333" stroke-linecap="round" stroke-linejoin="round"/>
<path d="M2.44922 25.433L9.91589 18.083" stroke="#FF8FA3" stroke-width="2.33333" stroke-linecap="round" stroke-linejoin="round"/>
<path d="M22.1667 5.83301L14 13.9997" stroke="#FF8FA3" stroke-width="2.33333" stroke-linecap="round" stroke-linejoin="round"/>
</svg>
