<svg width="28" height="28" viewBox="0 0 28 28" fill="none" xmlns="http://www.w3.org/2000/svg">
<path d="M12.834 23.3335C10.7854 23.3397 8.8093 22.5757 7.2976 21.1931C5.78591 19.8106 4.84906 17.9103 4.67286 15.8693C4.49666 13.8283 5.09397 11.7956 6.34634 10.1744C7.59871 8.55314 9.41465 7.46181 11.434 7.11683C18.084 5.8335 19.834 5.22683 22.1673 2.3335C23.334 4.66683 24.5007 7.21016 24.5007 11.6668C24.5007 18.0835 18.924 23.3335 12.834 23.3335Z" stroke="#009B77" stroke-width="2.33333" stroke-linecap="round" stroke-linejoin="round"/>
<path d="M2.33398 24.5C2.33398 21 4.49232 18.2467 8.26065 17.5C11.084 16.94 14.0007 15.1667 15.1673 14" stroke="#009B77" stroke-width="2.33333" stroke-linecap="round" stroke-linejoin="round"/>
</svg>
