<svg width="32" height="32" viewBox="0 0 32 32" fill="none" xmlns="http://www.w3.org/2000/svg">
<g clip-path="url(#clip0_30_2284)">
<path d="M16 15.9998C16 13.0543 18.3878 10.6665 21.3333 10.6665C24.2788 10.6665 26.6667 13.0543 26.6667 15.9998C26.6667 18.9454 24.2788 21.3332 21.3333 21.3332C18.3878 21.3332 16 18.9454 16 15.9998Z" fill="#1ABCFE"/>
<path d="M5.33398 26.6668C5.33398 23.7213 7.7218 21.3335 10.6673 21.3335H16.0007V26.6668C16.0007 29.6123 13.6128 32.0002 10.6673 32.0002C7.7218 32.0002 5.33398 29.6123 5.33398 26.6668Z" fill="#0ACF83"/>
<path d="M16 0V10.6667H21.3333C24.2788 10.6667 26.6667 8.27885 26.6667 5.33333C26.6667 2.38781 24.2788 0 21.3333 0H16Z" fill="#FF7262"/>
<path d="M5.33398 5.33333C5.33398 8.27885 7.7218 10.6667 10.6673 10.6667H16.0007V0H10.6673C7.7218 0 5.33398 2.38781 5.33398 5.33333Z" fill="#F24E1E"/>
<path d="M5.33398 15.9998C5.33398 18.9454 7.7218 21.3332 10.6673 21.3332H16.0007V10.6665H10.6673C7.7218 10.6665 5.33398 13.0543 5.33398 15.9998Z" fill="#A259FF"/>
</g>
<defs>
<clipPath id="clip0_30_2284">
<rect width="32" height="32" fill="white"/>
</clipPath>
</defs>
</svg>
