<svg width="28" height="28" viewBox="0 0 28 28" fill="none" xmlns="http://www.w3.org/2000/svg">
<path d="M7 12.833H11.6667" stroke="#FF8FA3" stroke-width="2.33333" stroke-linecap="round" stroke-linejoin="round"/>
<path d="M9.33398 10.5V15.1667" stroke="#FF8FA3" stroke-width="2.33333" stroke-linecap="round" stroke-linejoin="round"/>
<path d="M17.5 14H17.5117" stroke="#FF8FA3" stroke-width="2.33333" stroke-linecap="round" stroke-linejoin="round"/>
<path d="M21 11.667H21.0117" stroke="#FF8FA3" stroke-width="2.33333" stroke-linecap="round" stroke-linejoin="round"/>
<path d="M20.2073 5.83301H7.79398C6.63931 5.83328 5.52574 6.26161 4.66852 7.03522C3.81131 7.80882 3.27134 8.87275 3.15298 10.0213C3.14598 10.082 3.14132 10.1392 3.13315 10.1987C3.03865 10.985 2.33398 16.865 2.33398 18.6663C2.33398 19.5946 2.70273 20.4848 3.35911 21.1412C4.01549 21.7976 4.90573 22.1663 5.83398 22.1663C7.00065 22.1663 7.58398 21.583 8.16732 20.9997L9.81698 19.35C10.2545 18.9124 10.8479 18.6665 11.4667 18.6663H16.5347C17.1534 18.6665 17.7468 18.9124 18.1843 19.35L19.834 20.9997C20.4173 21.583 21.0007 22.1663 22.1673 22.1663C23.0956 22.1663 23.9858 21.7976 24.6422 21.1412C25.2986 20.4848 25.6673 19.5946 25.6673 18.6663C25.6673 16.8638 24.9627 10.985 24.8682 10.1987C24.86 10.1403 24.8553 10.082 24.8483 10.0225C24.7302 8.8737 24.1904 7.80949 23.3331 7.03565C22.4759 6.26181 21.3622 5.83331 20.2073 5.83301Z" stroke="#FF8FA3" stroke-width="2.33333" stroke-linecap="round" stroke-linejoin="round"/>
</svg>
