<svg width="32" height="32" viewBox="0 0 32 32" fill="none" xmlns="http://www.w3.org/2000/svg">
<g clip-path="url(#clip0_30_2441)">
<path d="M26 0H6C2.68629 0 0 2.68629 0 6V26C0 29.3137 2.68629 32 6 32H26C29.3137 32 32 29.3137 32 26V6C32 2.68629 29.3137 0 26 0Z" fill="#FF3C00"/>
<g clip-path="url(#clip1_30_2441)">
<path d="M13.7716 13.847C16.3642 12.3897 19.9444 10.3622 19.9444 4.40625H15.6235C15.6235 7.70102 14.0802 8.58807 11.6728 9.98201C9.08025 11.4393 5.5 13.4669 5.5 19.3594H9.82099C9.82099 16.0647 11.3642 15.1776 13.7716 13.847Z" fill="white"/>
<path d="M21.1781 12.4531C21.1781 15.7479 19.6349 16.6349 17.2275 18.0289C14.6349 19.4862 11.0547 21.5137 11.0547 27.4697H15.3757C15.3757 24.1749 16.9189 23.2878 19.3263 21.8939C21.9189 20.4366 25.4991 18.409 25.4991 12.4531H21.1781Z" fill="white"/>
</g>
</g>
<defs>
<clipPath id="clip0_30_2441">
<rect width="32" height="32" fill="white"/>
</clipPath>
<clipPath id="clip1_30_2441">
<rect width="20" height="23" fill="white" transform="translate(5.5 4.40625)"/>
</clipPath>
</defs>
</svg>
