<svg width="29" height="29" viewBox="0 0 29 29" fill="none" xmlns="http://www.w3.org/2000/svg">
<path d="M19.1169 9.55859C21.0184 9.55859 22.842 10.314 24.1866 11.6585C25.5312 13.0031 26.2866 14.8267 26.2866 16.7282V25.0928H21.5068V16.7282C21.5068 16.0944 21.255 15.4865 20.8068 15.0383C20.3586 14.5901 19.7507 14.3384 19.1169 14.3384C18.4831 14.3384 17.8752 14.5901 17.427 15.0383C16.9788 15.4865 16.727 16.0944 16.727 16.7282V25.0928H11.9473V16.7282C11.9473 14.8267 12.7026 13.0031 14.0472 11.6585C15.3918 10.314 17.2154 9.55859 19.1169 9.55859Z" stroke="#0A66C2" stroke-width="2.38988" stroke-linecap="round" stroke-linejoin="round"/>
<path d="M7.17039 10.7539H2.39062V25.0932H7.17039V10.7539Z" stroke="#0A66C2" stroke-width="2.38988" stroke-linecap="round" stroke-linejoin="round"/>
<path d="M4.78051 7.16843C6.1004 7.16843 7.17039 6.09845 7.17039 4.77855C7.17039 3.45866 6.1004 2.38867 4.78051 2.38867C3.46061 2.38867 2.39062 3.45866 2.39062 4.77855C2.39062 6.09845 3.46061 7.16843 4.78051 7.16843Z" stroke="#0A66C2" stroke-width="2.38988" stroke-linecap="round" stroke-linejoin="round"/>
</svg>
