<svg width="32" height="32" viewBox="0 0 32 32" fill="none" xmlns="http://www.w3.org/2000/svg">
<path d="M0 8C0 3.58172 3.58172 0 8 0H24C28.4183 0 32 3.58172 32 8V24C32 28.4183 28.4183 32 24 32H8C3.58172 32 0 28.4183 0 24V8Z" fill="#1868DB"/>
<path d="M11.9655 20.6978H10.1624C7.44302 20.6978 5.49219 19.0321 5.49219 16.5931H15.1874C15.6899 16.5931 16.015 16.95 16.015 17.4557V27.2117C13.5912 27.2117 11.9655 25.2486 11.9655 22.5121V20.6978ZM16.754 15.8495H14.951C12.2316 15.8495 10.2807 14.2136 10.2807 11.7746H19.9759C20.4784 11.7746 20.8331 12.1017 20.8331 12.6074V22.3635C18.4093 22.3635 16.754 20.4003 16.754 17.6639V15.8495ZM21.572 11.031H19.769C17.0496 11.031 15.0987 9.36534 15.0987 6.92627H24.794C25.2964 6.92627 25.6216 7.2832 25.6216 7.75914V17.5152C23.1978 17.5152 21.572 15.5521 21.572 12.8156V11.031Z" fill="white"/>
</svg>
