<svg width="32" height="32" viewBox="0 0 32 32" fill="none" xmlns="http://www.w3.org/2000/svg">
<g clip-path="url(#clip0_30_2388)">
<path d="M1.92544 1.38005L19.632 0.0722134C21.807 -0.114347 22.3658 0.0114133 23.7334 1.00565L29.3856 4.98741C30.3178 5.67221 30.6282 5.85877 30.6282 6.60437V28.4421C30.6282 29.8108 30.1312 30.6204 28.3914 30.7439L7.82944 31.9893C6.52384 32.0511 5.90208 31.8645 5.21824 30.9932L1.056 25.5807C0.30944 24.5845 0 23.8389 0 22.9673V3.55605C0 2.43701 0.49696 1.50389 1.92544 1.38005Z" fill="white"/>
<path fill-rule="evenodd" clip-rule="evenodd" d="M19.632 0.0725334L1.92544 1.38037C0.49696 1.50389 0 2.43733 0 3.55605V22.9673C0 23.8389 0.30944 24.5842 1.056 25.5807L5.21824 30.9929C5.90208 31.8642 6.52384 32.0511 7.82944 31.989L28.3917 30.7442C30.1302 30.6204 30.6285 29.8108 30.6285 28.4425V6.60469C30.6285 5.89749 30.3491 5.69365 29.5267 5.09013L23.7334 1.00565C22.3661 0.0114133 21.807 -0.114347 19.632 0.0722134V0.0725334ZM8.2944 6.24725C6.61536 6.36021 6.23456 6.38581 5.28096 5.61045L2.85664 3.68213C2.61024 3.43253 2.73408 3.12117 3.35488 3.05909L20.3766 1.81525C21.8061 1.69045 22.5504 2.18869 23.1094 2.62389L26.0288 4.73909C26.1536 4.80213 26.464 5.17429 26.0906 5.17429L8.512 6.23253L8.2944 6.24725ZM6.33696 28.2559V9.71733C6.33696 8.90773 6.5856 8.53429 7.32992 8.47157L27.52 7.28949C28.2048 7.22773 28.5142 7.66293 28.5142 8.47125V26.8863C28.5142 27.6959 28.3894 28.3807 27.2717 28.4425L7.95104 29.5625C6.83328 29.6242 6.33728 29.2521 6.33728 28.2559H6.33696ZM25.409 10.7113C25.5328 11.2713 25.409 11.8313 24.849 11.8953L23.9178 12.0799V25.7673C23.1091 26.2025 22.3648 26.4511 21.7427 26.4511C20.7485 26.4511 20.5002 26.1397 19.7555 25.2073L13.6659 15.6265V24.8959L15.5923 25.3321C15.5923 25.3321 15.5923 26.4521 14.0381 26.4521L9.75328 26.7007C9.62848 26.4511 9.75328 25.8293 10.1875 25.7055L11.3066 25.3951V13.1391L9.7536 13.0133C9.6288 12.4533 9.9392 11.6447 10.8096 11.582L15.407 11.2725L21.743 20.9772V12.3916L20.128 12.206C20.0032 11.5202 20.5002 11.022 21.121 10.9612L25.409 10.7113Z" fill="black"/>
</g>
<defs>
<clipPath id="clip0_30_2388">
<rect width="32" height="32" fill="white"/>
</clipPath>
</defs>
</svg>
