<svg width="28" height="28" viewBox="0 0 28 28" fill="none" xmlns="http://www.w3.org/2000/svg">
<path d="M15.7493 8.16667C16.0715 8.16667 16.3327 7.9055 16.3327 7.58333C16.3327 7.26117 16.0715 7 15.7493 7C15.4272 7 15.166 7.26117 15.166 7.58333C15.166 7.9055 15.4272 8.16667 15.7493 8.16667Z" fill="#9B7EDE" stroke="#9B7EDE" stroke-width="2.33333" stroke-linecap="round" stroke-linejoin="round"/>
<path d="M20.4173 12.8337C20.7395 12.8337 21.0007 12.5725 21.0007 12.2503C21.0007 11.9282 20.7395 11.667 20.4173 11.667C20.0952 11.667 19.834 11.9282 19.834 12.2503C19.834 12.5725 20.0952 12.8337 20.4173 12.8337Z" fill="#9B7EDE" stroke="#9B7EDE" stroke-width="2.33333" stroke-linecap="round" stroke-linejoin="round"/>
<path d="M9.91732 9.33317C10.2395 9.33317 10.5007 9.072 10.5007 8.74984C10.5007 8.42767 10.2395 8.1665 9.91732 8.1665C9.59515 8.1665 9.33398 8.42767 9.33398 8.74984C9.33398 9.072 9.59515 9.33317 9.91732 9.33317Z" fill="#9B7EDE" stroke="#9B7EDE" stroke-width="2.33333" stroke-linecap="round" stroke-linejoin="round"/>
<path d="M7.58333 15.1667C7.9055 15.1667 8.16667 14.9055 8.16667 14.5833C8.16667 14.2612 7.9055 14 7.58333 14C7.26117 14 7 14.2612 7 14.5833C7 14.9055 7.26117 15.1667 7.58333 15.1667Z" fill="#9B7EDE" stroke="#9B7EDE" stroke-width="2.33333" stroke-linecap="round" stroke-linejoin="round"/>
<path d="M14.0007 2.3335C7.58398 2.3335 2.33398 7.5835 2.33398 14.0002C2.33398 20.4168 7.58398 25.6668 14.0007 25.6668C15.081 25.6668 15.9233 24.7965 15.9233 23.6975C15.9233 23.1877 15.7133 22.7233 15.4135 22.385C15.0752 22.0478 14.9025 21.6243 14.9025 21.0725C14.8981 20.8157 14.9454 20.5607 15.0416 20.3226C15.1378 20.0845 15.281 19.8682 15.4626 19.6866C15.6442 19.505 15.8605 19.3618 16.0986 19.2656C16.3367 19.1694 16.5917 19.1221 16.8485 19.1265H19.1772C22.7367 19.1265 25.658 16.2063 25.658 12.6468C25.6265 7.01416 20.3718 2.3335 14.0007 2.3335Z" stroke="#9B7EDE" stroke-width="2.33333" stroke-linecap="round" stroke-linejoin="round"/>
</svg>
