<svg width="32" height="32" viewBox="0 0 32 32" fill="none" xmlns="http://www.w3.org/2000/svg">
<g clip-path="url(#clip0_30_2405)">
<path d="M6.85314 20.1575C6.85314 21.9969 5.36653 23.4835 3.52716 23.4835C1.68779 23.4835 0.201172 21.9969 0.201172 20.1575C0.201172 18.3182 1.68779 16.8315 3.52716 16.8315H6.85314V20.1575ZM8.51613 20.1575C8.51613 18.3182 10.0027 16.8315 11.8421 16.8315C13.6815 16.8315 15.1681 18.3182 15.1681 20.1575V28.4725C15.1681 30.3119 13.6815 31.7985 11.8421 31.7985C10.0027 31.7985 8.51613 30.3119 8.51613 28.4725V20.1575Z" fill="#E01E5A"/>
<path d="M11.8419 6.80334C10.0026 6.80334 8.51594 5.31672 8.51594 3.47735C8.51594 1.63798 10.0026 0.151367 11.8419 0.151367C13.6813 0.151367 15.1679 1.63798 15.1679 3.47735V6.80334H11.8419ZM11.8419 8.49153C13.6813 8.49153 15.1679 9.97814 15.1679 11.8175C15.1679 13.6569 13.6813 15.1435 11.8419 15.1435H3.50177C1.6624 15.1435 0.175781 13.6569 0.175781 11.8175C0.175781 9.97814 1.6624 8.49153 3.50177 8.49153H11.8419Z" fill="#36C5F0"/>
<path d="M25.1724 11.8175C25.1724 9.97814 26.659 8.49153 28.4984 8.49153C30.3377 8.49153 31.8244 9.97814 31.8244 11.8175C31.8244 13.6569 30.3377 15.1435 28.4984 15.1435H25.1724V11.8175ZM23.5094 11.8175C23.5094 13.6569 22.0228 15.1435 20.1834 15.1435C18.344 15.1435 16.8574 13.6569 16.8574 11.8175V3.47735C16.8574 1.63798 18.344 0.151367 20.1834 0.151367C22.0228 0.151367 23.5094 1.63798 23.5094 3.47735V11.8175Z" fill="#2EB67D"/>
<path d="M20.1834 25.1465C22.0228 25.1465 23.5094 26.6331 23.5094 28.4725C23.5094 30.3119 22.0228 31.7985 20.1834 31.7985C18.344 31.7985 16.8574 30.3119 16.8574 28.4725V25.1465H20.1834ZM20.1834 23.4835C18.344 23.4835 16.8574 21.9969 16.8574 20.1575C16.8574 18.3182 18.344 16.8315 20.1834 16.8315H28.5236C30.3629 16.8315 31.8495 18.3182 31.8495 20.1575C31.8495 21.9969 30.3629 23.4835 28.5236 23.4835H20.1834Z" fill="#ECB22E"/>
</g>
<defs>
<clipPath id="clip0_30_2405">
<rect width="32" height="32" fill="white"/>
</clipPath>
</defs>
</svg>
