<svg width="28" height="28" viewBox="0 0 28 28" fill="none" xmlns="http://www.w3.org/2000/svg">
<path d="M20.7667 22.4L18.6667 12.8333L22.75 8.75C24.5 7 25.0833 4.66667 24.5 3.5C23.3333 2.91667 21 3.5 19.25 5.25L15.1667 9.33333L5.6 7.23333C5.01667 7.11667 4.55 7.35 4.31667 7.81667L3.96667 8.4C3.73333 8.98333 3.85 9.56667 4.31667 9.91667L10.5 14L8.16667 17.5H4.66667L3.5 18.6667L7 21L9.33333 24.5L10.5 23.3333V19.8333L14 17.5L18.0833 23.6833C18.4333 24.15 19.0167 24.2667 19.6 24.0333L20.1833 23.8C20.65 23.45 20.8833 22.9833 20.7667 22.4Z" stroke="#FFD166" stroke-width="2.33333" stroke-linecap="round" stroke-linejoin="round"/>
</svg>
